<svg width="159" height="300" viewBox="0 0 159 300" fill="none" xmlns="http://www.w3.org/2000/svg">
<rect width="159" height="300" fill="#EDF3F8"/>
<g clip-path="url(#clip0_0_1)">
<rect width="768" height="3417" transform="translate(-305 -136)" fill="#EDF3F8"/>
<g opacity="0.15">
<circle cx="78.5" cy="-324.5" r="474.5" fill="#36536B"/>
<circle cx="78.5" cy="-324.5" r="474.5" fill="#36536B"/>
<mask id="mask0_0_1" style="mask-type:alpha" maskUnits="userSpaceOnUse" x="-396" y="-799" width="949" height="949">
<circle cx="78.5" cy="-324.5" r="474.5" fill="white"/>
</mask>
<g mask="url(#mask0_0_1)">
</g>
</g>
<g filter="url(#filter0_d_0_1)">
<path fill-rule="evenodd" clip-rule="evenodd" d="M21.6289 0.341797H137.241C148.329 0.341797 157.318 8.88301 157.318 19.4191V280.581C157.318 291.117 148.329 299.658 137.241 299.658H21.6289C10.541 299.658 1.55249 291.117 1.55249 280.581V19.4191C1.55249 8.88301 10.541 0.341797 21.6289 0.341797Z" fill="#213648"/>
</g>
<path opacity="0.595562" fill-rule="evenodd" clip-rule="evenodd" d="M137.688 0H21.113C15.6704 0.329373 10.6509 2.79416 6.05457 7.39437C9.01053 4.83354 14.2828 1.40674 21.2533 1.40674C21.2533 1.40674 132.901 1.40674 137.548 1.40674C144.519 1.40674 149.791 4.83354 152.747 7.39437C148.15 2.79416 143.131 0.329373 137.688 0Z" fill="url(#paint0_linear_0_1)" fill-opacity="0.65"/>
<path opacity="0.75" fill-rule="evenodd" clip-rule="evenodd" d="M154.163 277.603V20.9891C154.163 14.1039 151.614 11.5587 150.092 9.92433C148.571 8.28996 148.507 7.45637 150.692 8.69035C152.878 9.92433 157.249 13.5184 157.249 20.9891V277.603C157.249 285.073 152.878 288.667 150.692 289.901C148.507 291.135 148.571 290.302 150.092 288.667C151.614 287.033 154.163 284.488 154.163 277.603Z" fill="url(#paint1_linear_0_1)"/>
<path opacity="0.75" fill-rule="evenodd" clip-rule="evenodd" d="M4.63817 277.603V20.9891C4.63817 14.1039 7.18788 11.5587 8.70891 9.92433C10.2299 8.28996 10.2947 7.45637 8.10922 8.69035C5.92376 9.92433 1.55249 13.5184 1.55249 20.9891V277.603C1.55249 285.073 5.92376 288.667 8.10922 289.901C10.2947 291.135 10.2299 290.302 8.70891 288.667C7.18788 287.033 4.63817 284.488 4.63817 277.603Z" fill="url(#paint2_linear_0_1)"/>
<path fill-rule="evenodd" clip-rule="evenodd" d="M0 62.4345C0 61.6057 0.671881 60.9338 1.50069 60.9338C2.32949 60.9338 3.00138 61.6057 3.00138 62.4345V98.0436C3.00138 98.8724 2.32949 99.5443 1.50069 99.5443C0.671881 99.5443 0 98.8724 0 98.0436V62.4345Z" fill="#2E423C"/>
<path fill-rule="evenodd" clip-rule="evenodd" d="M155.696 93.9267C155.696 93.0979 156.368 92.426 157.197 92.426C158.026 92.426 158.698 93.0979 158.698 93.9267V119.095C158.698 119.924 158.026 120.596 157.197 120.596C156.368 120.596 155.696 119.924 155.696 119.095V93.9267Z" fill="#2E423C"/>
<path fill-rule="evenodd" clip-rule="evenodd" d="M65.7015 7.4668L20.7182 7.4668C14.0049 7.4668 9.11328 12.0048 9.11328 17.9316V271.365C9.11328 279.093 16.6717 285.941 25.2183 285.941H133.636C141.869 285.941 149.741 279.04 149.741 271.365V18.6167C149.741 11.5129 144.428 7.50904 138.137 7.4668L92.4401 7.4668C92.2669 7.49496 89.1279 8.77585 87.8012 12.0048C86.4745 15.2337 83.805 17.8077 80.8823 17.8077H77.4877C76.0984 17.8077 72.4409 16.4699 70.5889 12.0048C68.7368 7.53966 65.8747 7.49496 65.7015 7.4668Z" fill="white"/>
<mask id="mask1_0_1" style="mask-type:alpha" maskUnits="userSpaceOnUse" x="9" y="7" width="141" height="279">
<path fill-rule="evenodd" clip-rule="evenodd" d="M65.7015 7.4668L20.7182 7.4668C14.0049 7.4668 9.11328 12.0048 9.11328 17.9316V271.365C9.11328 279.093 16.6717 285.941 25.2183 285.941H133.636C141.869 285.941 149.741 279.04 149.741 271.365V18.6167C149.741 11.5129 144.428 7.50904 138.137 7.4668L92.4401 7.4668C92.2669 7.49496 89.1279 8.77585 87.8012 12.0048C86.4745 15.2337 83.805 17.8077 80.8823 17.8077H77.4877C76.0984 17.8077 72.4409 16.4699 70.5889 12.0048C68.7368 7.53966 65.8747 7.49496 65.7015 7.4668Z" fill="white"/>
</mask>
<g mask="url(#mask1_0_1)">
<rect x="9" y="7" width="141" height="279" fill="url(#paint3_linear_0_1)"/>
<path fill-rule="evenodd" clip-rule="evenodd" d="M73.4519 81.6385V84.0001H63.1792V81.9073C63.1792 81.2033 63.3114 80.5937 63.5758 80.0785C63.8402 79.5633 64.19 79.1153 64.6253 78.7345C65.0606 78.3537 65.5378 78.0193 66.0569 77.7313C66.576 77.4433 67.0968 77.1713 67.6191 76.9153C68.1415 76.6593 68.6203 76.4017 69.0556 76.1425C69.4908 75.8833 69.8407 75.5937 70.1051 75.2737C70.3695 74.9537 70.5017 74.5761 70.5017 74.1409C70.5017 73.5841 70.3066 73.1297 69.9164 72.7777C69.5263 72.4257 68.9927 72.2497 68.3156 72.2497C67.6127 72.2497 67.0162 72.4513 66.5261 72.8545C66.036 73.2577 65.7329 73.8657 65.6168 74.6785H62.918C62.9309 73.7953 63.1389 72.9937 63.5419 72.2737C63.945 71.5537 64.5495 70.9825 65.3556 70.5601C66.1617 70.1377 67.1742 69.9265 68.393 69.9265C69.4376 69.9265 70.3388 70.1025 71.0966 70.4545C71.8543 70.8065 72.4395 71.2961 72.8522 71.9233C73.2649 72.5505 73.4713 73.2833 73.4713 74.1217C73.4713 74.8193 73.3423 75.4209 73.0844 75.9265C72.8264 76.4321 72.4846 76.8641 72.059 77.2225C71.6334 77.5809 71.1659 77.8945 70.6564 78.1633C70.147 78.4321 69.6392 78.6817 69.1329 78.9121C68.6267 79.1425 68.1608 79.3777 67.7352 79.6177C67.3096 79.8577 66.9678 80.1281 66.7098 80.4289C66.4519 80.7297 66.3229 81.0913 66.3229 81.5137V81.6385H73.4519ZM59.9968 70.1185V84.0001H57.1336V73.6033H54.6379V72.0193C55.4376 72.0193 56.0841 71.9441 56.5774 71.7937C57.0707 71.6433 57.4399 71.4257 57.6849 71.1409C57.93 70.8561 58.0751 70.5153 58.1202 70.1185H59.9968ZM78.4239 77.3185V74.3137H75.3285V77.3185H78.4239ZM78.4239 80.9473V83.9425H75.3285V80.9473H78.4239ZM89.5672 84.0001V80.9281H91.7242V78.5761H89.5672V70.1185H86.791L80.4165 78.6241V80.9281H86.8587L86.849 84.0001H89.5672ZM83.0282 78.5761H86.8587V73.4881L83.0282 78.5761ZM98.2632 84.2113C99.4884 84.2113 100.543 83.9377 101.426 83.3905C102.31 82.8433 102.988 82.0177 103.462 80.9137C103.936 79.8097 104.173 78.4289 104.173 76.7713C104.173 75.3825 103.943 74.1745 103.482 73.1473C103.021 72.1201 102.36 71.3265 101.499 70.7665C100.638 70.2065 99.6142 69.9265 98.4276 69.9265C97.37 69.9265 96.4479 70.1281 95.6611 70.5313C94.8744 70.9345 94.2618 71.4913 93.8233 72.2017C93.3848 72.9121 93.1655 73.7217 93.1655 74.6305C93.1655 75.5329 93.3735 76.3121 93.7894 76.9681C94.2054 77.6241 94.7793 78.1297 95.5112 78.4849C96.2431 78.8401 97.0831 79.0177 98.031 79.0177C98.5534 79.0177 99.0274 78.9489 99.453 78.8113C99.8786 78.6737 100.251 78.4785 100.57 78.2257C100.889 77.9729 101.139 77.6769 101.32 77.3377C101.397 78.4449 101.309 79.3409 101.054 80.0257C100.799 80.7105 100.419 81.2097 99.9124 81.5233C99.4062 81.8369 98.8178 81.9937 98.1471 81.9937C97.5409 81.9937 97.0379 81.8257 96.6381 81.4897C96.2383 81.1537 95.9804 80.7169 95.8643 80.1793H93.1752C93.2332 80.9921 93.5008 81.7009 93.978 82.3057C94.4552 82.9105 95.0711 83.3793 95.8256 83.7121C96.5801 84.0449 97.3926 84.2113 98.2632 84.2113ZM96.8413 76.1905C97.2669 76.5905 97.8247 76.7905 98.5147 76.7905C98.9081 76.7905 99.2901 76.7025 99.6609 76.5265C100.032 76.3505 100.336 76.1281 100.575 75.8593C100.814 75.5905 100.933 75.3121 100.933 75.0241C100.939 74.4033 100.841 73.8705 100.638 73.4257C100.435 72.9809 100.151 72.6401 99.7867 72.4033C99.4223 72.1665 98.9983 72.0481 98.5147 72.0481C98.0697 72.0481 97.6731 72.1505 97.3249 72.3553C96.9767 72.5601 96.7026 72.8481 96.5027 73.2193C96.3028 73.5905 96.2028 74.0193 96.2028 74.5057C96.2028 75.2289 96.4156 75.7905 96.8413 76.1905Z" fill="white"/>
</g>
<g clip-path="url(#clip1_0_1)">
<g filter="url(#filter1_d_0_1)">
<rect x="12.8054" y="100" width="131.255" height="53.1915" rx="5" fill="#FBFCFE"/>
</g>
<path fill-rule="evenodd" clip-rule="evenodd" d="M24.8864 115.285V113.426L26.4006 110.865H25.4403L24.4499 112.656L23.4474 110.865H22.4961L24.0073 113.423V115.285H24.8864ZM28.1708 115.346C28.4879 115.346 28.7583 115.277 28.9821 115.138C29.2059 115 29.3774 114.809 29.4969 114.565C29.6163 114.321 29.676 114.041 29.676 113.723C29.676 113.384 29.6148 113.091 29.4923 112.842C29.3699 112.594 29.1963 112.402 28.9715 112.266C28.7468 112.131 28.4808 112.063 28.1738 112.063C27.8667 112.063 27.6003 112.132 27.3745 112.271C27.1487 112.409 26.9741 112.603 26.8507 112.852C26.7273 113.1 26.6655 113.391 26.6655 113.723C26.6655 114.055 26.7273 114.342 26.8507 114.585C26.9741 114.827 27.1487 115.015 27.3745 115.147C27.6003 115.28 27.8657 115.346 28.1708 115.346ZM27.7854 114.539C27.8798 114.635 28.0092 114.683 28.1738 114.683C28.3283 114.683 28.4527 114.637 28.5471 114.545C28.6414 114.453 28.7101 114.333 28.7533 114.183C28.7964 114.033 28.818 113.87 28.818 113.692C28.818 113.525 28.7984 113.367 28.7593 113.218C28.7202 113.07 28.6534 112.949 28.5591 112.858C28.4648 112.766 28.3363 112.72 28.1738 112.72C28.0192 112.72 27.8943 112.763 27.799 112.85C27.7036 112.937 27.6339 113.054 27.5898 113.202C27.5456 113.349 27.5235 113.513 27.5235 113.692C27.5235 113.857 27.5436 114.016 27.5837 114.168C27.6239 114.319 27.6911 114.443 27.7854 114.539ZM31.407 115.346C31.5294 115.346 31.6543 115.327 31.7818 115.289C31.9092 115.252 32.0226 115.184 32.122 115.085C32.2213 114.986 32.289 114.844 32.3252 114.658L32.4275 115.285H33.0898V112.124H32.2198V114.181C32.2198 114.344 32.1691 114.471 32.0678 114.562C31.9664 114.653 31.8295 114.698 31.6569 114.698C31.4742 114.698 31.3357 114.651 31.2414 114.557C31.1471 114.464 31.0999 114.343 31.0999 114.197V112.124H30.2209V114.31C30.2209 114.479 30.2555 114.628 30.3247 114.756C30.394 114.884 30.4858 114.992 30.6002 115.08C30.7146 115.168 30.8415 115.234 30.981 115.279C31.1205 115.324 31.2625 115.346 31.407 115.346ZM34.6823 113.555V115.285H33.8033V112.124H34.6492V112.873C34.6994 112.712 34.7701 112.571 34.8615 112.45C34.9528 112.328 35.0637 112.234 35.1941 112.165C35.3246 112.097 35.4721 112.063 35.6366 112.063C35.6647 112.063 35.6913 112.064 35.7164 112.067C35.7415 112.07 35.7601 112.075 35.7721 112.081V112.931C35.7541 112.923 35.7325 112.918 35.7074 112.916C35.6823 112.914 35.6597 112.912 35.6397 112.91C35.4671 112.895 35.3195 112.9 35.1971 112.925C35.0747 112.949 34.9754 112.991 34.8991 113.05C34.8228 113.109 34.7676 113.182 34.7335 113.267C34.6994 113.353 34.6823 113.449 34.6823 113.555ZM38.1985 115.285L38.5628 114.261H40.1282L40.4835 115.285H41.3595L39.8031 110.865H38.8759L37.3165 115.285H38.1985ZM38.7585 113.481H39.9175L39.3425 111.727L38.7585 113.481ZM42.7804 116.269V114.811C42.8246 114.886 42.8762 114.956 42.9355 115.02C42.9947 115.085 43.0619 115.141 43.1372 115.19C43.2124 115.239 43.2942 115.277 43.3825 115.305C43.4708 115.332 43.5651 115.346 43.6655 115.346C43.9103 115.346 44.1301 115.287 44.3248 115.169C44.5194 115.051 44.6725 114.869 44.7839 114.623C44.8952 114.377 44.9509 114.063 44.9509 113.68C44.9509 113.311 44.8993 113.007 44.7959 112.767C44.6925 112.528 44.5506 112.351 44.3699 112.236C44.1893 112.12 43.9836 112.063 43.7528 112.063C43.6464 112.063 43.5451 112.076 43.4487 112.101C43.3524 112.127 43.2631 112.163 43.1808 112.21C43.0985 112.256 43.0238 112.311 42.9565 112.373C42.8893 112.435 42.8326 112.504 42.7864 112.579L42.7834 112.124H41.9014V116.269H42.7804ZM43.0769 114.551C43.1763 114.645 43.3022 114.692 43.4548 114.692C43.6454 114.692 43.8055 114.611 43.9349 114.45C44.0644 114.289 44.1291 114.035 44.1291 113.686C44.1291 113.38 44.0674 113.141 43.9439 112.969C43.8205 112.797 43.6575 112.711 43.4548 112.711C43.228 112.711 43.0589 112.804 42.9475 112.991C42.8361 113.177 42.7804 113.409 42.7804 113.686C42.7804 113.863 42.805 114.028 42.8542 114.181C42.9033 114.334 42.9776 114.457 43.0769 114.551ZM46.414 116.269V114.811C46.4582 114.886 46.5098 114.956 46.569 115.02C46.6283 115.085 46.6955 115.141 46.7708 115.19C46.846 115.239 46.9278 115.277 47.0161 115.305C47.1044 115.332 47.1987 115.346 47.2991 115.346C47.5439 115.346 47.7637 115.287 47.9584 115.169C48.153 115.051 48.3061 114.869 48.4175 114.623C48.5288 114.377 48.5845 114.063 48.5845 113.68C48.5845 113.311 48.5329 113.007 48.4295 112.767C48.3261 112.528 48.1842 112.351 48.0035 112.236C47.8229 112.12 47.6172 112.063 47.3864 112.063C47.28 112.063 47.1787 112.076 47.0823 112.101C46.986 112.127 46.8967 112.163 46.8144 112.21C46.7321 112.256 46.6574 112.311 46.5901 112.373C46.5229 112.435 46.4662 112.504 46.42 112.579L46.417 112.124H45.535V116.269H46.414ZM46.7105 114.551C46.8099 114.645 46.9358 114.692 47.0884 114.692C47.279 114.692 47.4391 114.611 47.5685 114.45C47.698 114.289 47.7627 114.035 47.7627 113.686C47.7627 113.38 47.701 113.141 47.5775 112.969C47.4541 112.797 47.2911 112.711 47.0884 112.711C46.8616 112.711 46.6925 112.804 46.5811 112.991C46.4697 113.177 46.414 113.409 46.414 113.686C46.414 113.863 46.4386 114.028 46.4878 114.181C46.5369 114.334 46.6112 114.457 46.7105 114.551Z" fill="#BA4270"/>
<path opacity="0.5" fill-rule="evenodd" clip-rule="evenodd" d="M110.691 115.218C110.558 115.303 110.369 115.346 110.124 115.346C109.969 115.346 109.824 115.328 109.689 115.291C109.553 115.254 109.463 115.227 109.419 115.208L109.458 114.667C109.521 114.69 109.592 114.718 109.674 114.751C109.755 114.785 109.856 114.802 109.976 114.802C110.173 114.802 110.308 114.747 110.381 114.637C110.454 114.527 110.491 114.341 110.491 114.08V110.865H111.048V114.242C111.048 114.477 111.022 114.677 110.97 114.842C110.918 115.007 110.825 115.132 110.691 115.218ZM113.524 115.28C113.397 115.326 113.26 115.348 113.113 115.346C112.951 115.344 112.798 115.32 112.654 115.274C112.511 115.228 112.384 115.161 112.273 115.071C112.163 114.981 112.076 114.87 112.013 114.736C111.95 114.603 111.918 114.447 111.918 114.27V112.124H112.475V114.212C112.475 114.418 112.538 114.585 112.663 114.713C112.788 114.842 112.978 114.906 113.231 114.906C113.459 114.906 113.643 114.845 113.783 114.724C113.922 114.603 113.992 114.422 113.992 114.181V112.124H114.546V115.285H114.104L114.046 114.68C114.008 114.839 113.943 114.967 113.852 115.065C113.761 115.163 113.651 115.234 113.524 115.28ZM116.521 115.346C116.774 115.346 116.989 115.308 117.167 115.231C117.344 115.155 117.481 115.047 117.576 114.907C117.671 114.768 117.719 114.601 117.719 114.408C117.719 114.33 117.708 114.249 117.684 114.165C117.661 114.08 117.622 113.999 117.567 113.921C117.512 113.844 117.438 113.774 117.344 113.711C117.251 113.647 117.132 113.596 116.988 113.558L116.364 113.399C116.192 113.356 116.061 113.302 115.973 113.238C115.885 113.174 115.841 113.086 115.841 112.974C115.841 112.805 115.903 112.68 116.027 112.599C116.152 112.519 116.313 112.479 116.512 112.479C116.703 112.479 116.855 112.523 116.968 112.612C117.081 112.7 117.148 112.82 117.168 112.971H117.659C117.651 112.673 117.543 112.448 117.335 112.294C117.128 112.14 116.855 112.063 116.518 112.063C116.255 112.063 116.035 112.104 115.859 112.185C115.682 112.267 115.55 112.378 115.461 112.518C115.373 112.659 115.33 112.822 115.332 113.007C115.332 113.242 115.407 113.424 115.558 113.555C115.708 113.685 115.909 113.781 116.16 113.842L116.804 114.004C116.944 114.037 117.048 114.088 117.115 114.158C117.183 114.229 117.216 114.322 117.216 114.438C117.216 114.603 117.152 114.725 117.024 114.805C116.895 114.884 116.727 114.924 116.518 114.924C116.387 114.924 116.267 114.903 116.157 114.862C116.046 114.82 115.954 114.758 115.881 114.675C115.808 114.592 115.757 114.489 115.729 114.365H115.223C115.256 114.591 115.333 114.777 115.455 114.923C115.578 115.068 115.732 115.175 115.917 115.244C116.103 115.312 116.304 115.346 116.521 115.346ZM119.963 115.285C119.886 115.295 119.79 115.3 119.676 115.3C119.461 115.3 119.295 115.271 119.176 115.212C119.058 115.152 118.975 115.065 118.928 114.949C118.881 114.832 118.857 114.69 118.857 114.521V112.537H118.351V112.124H118.872L119.008 111.204H119.417V112.121H120.118V112.537H119.417V114.502C119.417 114.614 119.429 114.696 119.452 114.748C119.475 114.8 119.514 114.833 119.569 114.848C119.624 114.862 119.7 114.869 119.796 114.869H120.136V115.248C120.098 115.262 120.041 115.275 119.963 115.285ZM122.978 115.285V111.8L125.314 115.285H125.811V110.865H125.254V114.301L122.954 110.865H122.421V115.285H122.978ZM128.862 115.14C128.652 115.277 128.393 115.346 128.084 115.346C127.797 115.346 127.546 115.283 127.331 115.158C127.117 115.033 126.95 114.849 126.832 114.606C126.713 114.364 126.654 114.067 126.654 113.717C126.654 113.387 126.709 113.097 126.82 112.848C126.93 112.6 127.092 112.407 127.306 112.269C127.52 112.132 127.779 112.063 128.084 112.063C128.371 112.063 128.62 112.127 128.832 112.254C129.044 112.381 129.208 112.568 129.324 112.815C129.441 113.061 129.499 113.362 129.499 113.717C129.499 114.039 129.445 114.322 129.338 114.567C129.23 114.811 129.072 115.002 128.862 115.14ZM128.084 114.9C127.877 114.9 127.71 114.847 127.581 114.741C127.453 114.635 127.359 114.491 127.298 114.31C127.238 114.128 127.208 113.927 127.208 113.704C127.208 113.454 127.242 113.239 127.309 113.059C127.376 112.88 127.475 112.743 127.605 112.648C127.736 112.553 127.895 112.506 128.084 112.506C128.289 112.506 128.455 112.559 128.582 112.665C128.71 112.771 128.803 112.914 128.861 113.095C128.919 113.275 128.948 113.478 128.948 113.704C128.948 113.951 128.915 114.164 128.849 114.343C128.782 114.523 128.685 114.66 128.557 114.756C128.428 114.852 128.271 114.9 128.084 114.9ZM132.124 112.952L131.45 115.285H130.905L129.944 112.124H130.459L131.173 114.554H131.221L131.922 112.124H132.344L133.072 114.548H133.12L133.804 112.124H134.325L133.382 115.285H132.834L132.124 112.952Z" fill="#36536B"/>
<text fill="#36536B" xml:space="preserve" style="white-space: pre" font-family="Public Sans" font-size="6.5" letter-spacing="0px"><tspan x="22" y="126.106">The payment has been processed. </tspan><tspan x="22" y="134.606">The total amount deducted from your </tspan><tspan x="22" y="143.106">account is</tspan></text>
<text fill="#36536B" xml:space="preserve" style="white-space: pre" font-family="Public Sans" font-size="6.5" font-weight="bold" letter-spacing="0px"><tspan x="52.729" y="143.106"> US $104.90</tspan></text>
<text fill="#36536B" xml:space="preserve" style="white-space: pre" font-family="Public Sans" font-size="6.5" letter-spacing="0px"><tspan x="90.5356" y="143.106">.</tspan></text>
</g>
</g>
<defs>
<filter id="filter0_d_0_1" x="-53.4475" y="-54.6582" width="315.765" height="459.317" filterUnits="userSpaceOnUse" color-interpolation-filters="sRGB">
<feFlood flood-opacity="0" result="BackgroundImageFix"/>
<feColorMatrix in="SourceAlpha" type="matrix" values="0 0 0 0 0 0 0 0 0 0 0 0 0 0 0 0 0 0 127 0" result="hardAlpha"/>
<feOffset dx="25" dy="25"/>
<feGaussianBlur stdDeviation="40"/>
<feColorMatrix type="matrix" values="0 0 0 0 0.212302 0 0 0 0 0.32521 0 0 0 0 0.419299 0 0 0 0.300727 0"/>
<feBlend mode="normal" in2="BackgroundImageFix" result="effect1_dropShadow_0_1"/>
<feBlend mode="normal" in="SourceGraphic" in2="effect1_dropShadow_0_1" result="shape"/>
</filter>
<filter id="filter1_d_0_1" x="7.80542" y="95" width="161.255" height="83.1914" filterUnits="userSpaceOnUse" color-interpolation-filters="sRGB">
<feFlood flood-opacity="0" result="BackgroundImageFix"/>
<feColorMatrix in="SourceAlpha" type="matrix" values="0 0 0 0 0 0 0 0 0 0 0 0 0 0 0 0 0 0 127 0" result="hardAlpha"/>
<feMorphology radius="10" operator="erode" in="SourceAlpha" result="effect1_dropShadow_0_1"/>
<feOffset dx="10" dy="10"/>
<feGaussianBlur stdDeviation="12.5"/>
<feColorMatrix type="matrix" values="0 0 0 0 0.212302 0 0 0 0 0.32521 0 0 0 0 0.419299 0 0 0 0.25 0"/>
<feBlend mode="normal" in2="BackgroundImageFix" result="effect1_dropShadow_0_1"/>
<feBlend mode="normal" in="SourceGraphic" in2="effect1_dropShadow_0_1" result="shape"/>
</filter>
<linearGradient id="paint0_linear_0_1" x1="6.05457" y1="0" x2="6.05457" y2="7.39437" gradientUnits="userSpaceOnUse">
<stop stop-color="#454545"/>
<stop offset="0.226279" stop-color="#999999"/>
<stop offset="1" stop-color="white"/>
</linearGradient>
<linearGradient id="paint1_linear_0_1" x1="157.249" y1="51.4485" x2="151.529" y2="51.4485" gradientUnits="userSpaceOnUse">
<stop stop-color="white" stop-opacity="0.01"/>
<stop offset="0.222178" stop-color="#BABABA"/>
<stop offset="0.54678" stop-color="white" stop-opacity="0.01"/>
<stop offset="1" stop-color="white" stop-opacity="0.01"/>
</linearGradient>
<linearGradient id="paint2_linear_0_1" x1="1.55249" y1="51.2921" x2="7.28137" y2="51.2921" gradientUnits="userSpaceOnUse">
<stop stop-color="white" stop-opacity="0.01"/>
<stop offset="0.222178" stop-color="#BABABA"/>
<stop offset="0.54678" stop-color="white" stop-opacity="0.01"/>
<stop offset="1" stop-color="white" stop-opacity="0.01"/>
</linearGradient>
<linearGradient id="paint3_linear_0_1" x1="9.54885" y1="7" x2="9.54885" y2="283.828" gradientUnits="userSpaceOnUse">
<stop stop-color="#9CB6CD"/>
<stop offset="0.420564" stop-color="#9AB3CA"/>
<stop offset="0.716592" stop-color="#557496"/>
<stop offset="1" stop-color="#475178"/>
</linearGradient>
<clipPath id="clip0_0_1">
<rect width="768" height="3417" fill="white" transform="translate(-305 -136)"/>
</clipPath>
<clipPath id="clip1_0_1">
<rect width="132" height="54" fill="white" transform="translate(12.8054 100)"/>
</clipPath>
</defs>
</svg>
